<svg width="1200" height="474" viewBox="0 0 1200 474" fill="none" xmlns="http://www.w3.org/2000/svg">
<path d="M0 0L1200 0V474L0 287.357L0 0Z" fill="#C9E9F6"/>
<path d="M817.111 325.716C817.46 327.117 816.607 328.537 815.203 328.874C772.45 339.131 727.93 339.688 684.914 330.489C641.898 321.29 601.501 302.574 566.681 275.729C565.538 274.847 565.341 273.202 566.232 272.067V272.067C567.124 270.931 568.767 270.734 569.911 271.616C604.103 297.97 643.771 316.343 686.008 325.375C728.245 334.408 771.958 333.865 813.938 323.8C815.342 323.464 816.761 324.315 817.111 325.716V325.716Z" fill="#226596"/>
</svg>
